<?xml version="1.0" standalone="no"?><!DOCTYPE svg PUBLIC "-//W3C//DTD SVG 1.1//EN" "http://www.w3.org/Graphics/SVG/1.1/DTD/svg11.dtd"><svg t="1666250520642" class="icon" viewBox="0 0 1067 1024" version="1.1" xmlns="http://www.w3.org/2000/svg" p-id="5070" xmlns:xlink="http://www.w3.org/1999/xlink" width="312.59765625" height="300"><path d="M1064.751254 186.324597l-18.362647-11.839076-9.906165-21.74524c-3.624207-6.765186-6.281958-0.241614-6.523572 0l-9.906165 21.74524-18.362647 11.839076c-0.966455 0.724841-4.832276 3.86582 0.241614 7.73164l18.121033 11.839076 9.906165 21.503626s2.899365 6.765186 6.523572 0l9.906165-21.503626 18.121033-11.839076c5.073889-3.86582 1.208069-7.0068 0.241614-7.73164z m-16.671351 5.557116l-8.456482 5.557117-4.832276 10.389393c-1.691296 3.140979-3.140979 0-3.140979 0l-4.590662-10.389393-8.698096-5.557117a1.93291 1.93291 0 0 1 0-3.624206l8.698096-5.557117 4.590662-10.389393c0.241614 0 1.449683-3.140979 3.140979 0l4.832276 10.389393 8.698096 5.557117c0.483228 0.241614 2.174524 1.93291-0.241614 3.624206zM300.526874 164.82097L218.136575 111.182712 173.196413 13.812359c-16.188123-30.443336-28.75204-1.208069-29.235267-0.241614L99.020983 111.182712 16.630685 164.82097c-4.349048 2.899365-21.986854 17.396192 0.966455 34.792384l81.423843 52.913418L143.719532 349.655511s13.047144 31.168177 29.476881 0h0.241614l44.698548-97.128739 81.18223-52.913418c23.194923-17.396192 5.557117-31.893019 1.208069-34.792384zM225.384989 190.190417l-38.658205 25.127833-21.262012 46.148232c-7.731641 14.73844-14.013599 0-14.013599 0l-21.262013-46.148232-38.658204-25.127833c-10.87262-8.214868-2.416138-14.980054-0.483228-16.429737l39.141432-25.61106 21.503627-46.389846c0.241614-0.483228 6.040344-14.255213 13.771985 0.241614l21.262012 46.148232L225.868216 173.76068c2.174524 1.449683 10.631006 8.214868-0.483227 16.429737zM329.762141 572.1818l-35.517225-23.194923-19.329103-42.040797c-7.0068-13.288758-12.563916-0.724841-12.80553-0.241614l-19.329102 42.282411-35.758839 23.194923c-1.93291 1.449683-9.422937 7.490027 0.483227 15.221668l35.275612 22.711695 19.329102 42.040798s5.557117 13.530372 12.80553 0l19.329103-42.040798 35.275611-22.711695c9.906165-7.731641 2.174524-13.771985 0.241614-15.221668z m-32.376246 11.114234l-16.671351 10.87262-9.181324 19.81233c-3.382593 6.523572-6.040344 0-6.040344 0l-9.181324-19.81233-16.912964-10.87262c-4.590662-3.624207-0.966455-6.523572 0-7.248413l16.912964-11.114234 9.181324-20.053944c0-0.241614 2.657752-6.040344 6.040344 0.241614l9.181324 19.81233 16.912964 11.114234c0.966455 0.724841 4.590662 3.624207-0.241613 7.248413z" fill="#231815" p-id="5071"></path><path d="M874.842824 609.148708c-27.060743 107.759745-94.712601 203.922029-192.082953 263.600632-231.707613 141.827288-456.891654-13.288758-456.891655-13.288758C782.304747 718.116522 647.484259 125.679538 647.484259 125.679538c103.893925 48.564369 165.263824 118.149137 200.056208 192.324568l72.484134-29.960109A507.630548 507.630548 0 0 0 621.389971 36.524054C523.053163 16.953338 550.113907 100.310092 550.113907 100.310092h-0.241614a500.865362 500.865362 0 0 1 35.517225 185.317767c0 260.701267-197.156843 475.012688-450.609696 502.798272s-89.155484 26.094288 6.523572 114.041704a502.556658 502.556658 0 0 0 328.353124 121.53173c255.14415 0 466.072978-188.941974 500.865362-434.421573z" fill="#231815" p-id="5072"></path><path d="M847.540467 318.004106s14.73844 26.335902 48.56437 12.80553c0 0 29.235267-12.080689 23.919764-42.765639h-43.49048zM874.842824 609.148708s0-34.792384 39.866274-41.55757c0 0 41.799184-10.147779 55.812782 21.986854l-25.127833 34.067543z" fill="#231815" p-id="5073"></path></svg>