<svg xmlns="http://www.w3.org/2000/svg" xmlns:xlink="http://www.w3.org/1999/xlink" class="icon" viewBox="0 0 1024 1024" id="icon-rebate" width="128" height="128"><path d="M355.413333 697.6l-23.466666-69.12c20.48-20.053333 36.266667-34.56 46.506666-43.52v-121.6H333.653333V405.76h104.96v176.64c17.92 31.146667 48.64 46.506667 90.88 46.506667 27.733333 0.426667 66.56 0.853333 116.053334 0.426666 49.066667 0 93.44-0.426667 132.266666-1.706666-6.826667 21.333333-12.8 40.96-17.493333 59.733333-116.906667-0.426667-198.4-1.28-245.333333-3.413333-49.92-1.28-84.48-17.92-104.533334-49.92-23.04 24.746667-41.386667 45.653333-55.04 63.573333zM407.893333 375.466667c-18.346667-32.853333-37.12-63.573333-56.746666-92.586667l50.773333-27.733333c20.48 28.16 40.533333 58.026667 61.013333 89.6l-55.04 30.72z m135.68 245.76c-11.093333-18.346667-22.186667-34.986667-32.426666-49.066667 42.666667-14.08 76.373333-29.866667 101.12-46.933333l-64.853334-52.053334 37.973334-35.84 67.84 51.626667c14.506667-17.066667 27.733333-37.973333 39.253333-62.72h-145.92c-0.853333 63.573333-20.906667 123.306667-59.733333 178.773333-19.626667-19.626667-34.133333-33.706667-43.52-41.813333 18.346667-25.6 30.293333-49.92 36.693333-72.96 6.4-22.186667 9.813333-52.053333 9.386667-89.6V282.026667a2560 2560 0 0 0 260.693333-20.48l15.786667 53.76c-66.133333 7.68-139.093333 13.653333-218.88 17.066666v41.386667h204.373333v55.893333c-16.213333 37.973333-34.56 68.693333-55.466667 92.586667 22.613333 17.066667 45.226667 35.413333 68.693334 54.186667l-40.533334 43.52c-6.4-5.546667-16.213333-14.08-29.013333-24.746667-17.92-14.933333-31.146667-26.453333-40.106667-33.706667-28.16 20.906667-65.28 40.96-111.36 59.733334z" p-id="3712"></path><path d="M896 896H128c-23.466667 0-42.666667-19.2-42.666667-42.666667V170.666667h85.333334v640h725.333333v85.333333z" p-id="3713"></path></svg>